<svg viewBox="0 0 32 32" xmlns="http://www.w3.org/2000/svg" role="img" aria-label="Icono"><path fill="#FFD608" d="M1,1v30h30V1H1z M17.3,24.4c0,2.9-1.7,4.2-4.2,4.2c-2.3,0-3.6-1.2-4.2-2.6l2.3-1.4c0.4,0.8,0.8,1.4,1.8,1.4
    c0.9,0,1.5-0.4,1.5-1.8v-9.6h2.8V24.4z M24,28.6c-2.6,0-4.3-1.2-5.1-2.9l2.3-1.3c0.6,1,1.4,1.7,2.8,1.7c1.2,0,1.9-0.6,1.9-1.4
    c0-1-0.8-1.3-2.1-1.9l-0.7-0.3c-2-0.9-3.4-2-3.4-4.3c0-2.1,1.6-3.7,4.1-3.7c1.8,0,3.1,0.6,4,2.3l-2.2,1.4c-0.5-0.9-1-1.2-1.8-1.2
    c-0.8,0-1.4,0.5-1.4,1.2c0,0.9,0.5,1.2,1.7,1.7l0.7,0.3c2.4,1,3.7,2.1,3.7,4.4C28.7,27.3,26.7,28.6,24,28.6z"/></svg>


