<svg role="img" viewBox="0 0 128 128" xmlns="http://www.w3.org/2000/svg"><title>Premiere pro icon</title><path fill="#00005F" d="M22.7,1.6h82.7c12.5,0,22.7,10.1,22.7,22.7v79.5c0,12.5-10.1,22.7-22.7,22.7H22.7C10.1,126.4,0,116.3,0,103.7V24.3C0,11.7,10.1,1.6,22.7,1.6"/><path fill="#9999FA" d="M45.4,35.8c-1.6,0-3.2,0-4.9,0.1c-1.7,0.1-3.2,0.1-4.6,0.1C34.5,36,33.2,36,31.9,36c-1.2,0.1-2.1,0.1-3,0.1c-0.4,0-0.5,0.2-0.5,0.6v54.9c0,0.5,0.2,0.7,0.6,0.7h10.3c0.4-0.1,0.6-0.4,0.6-0.7V74.4c1,0,1.8,0,2.3,0.1c0.5,0.1,1.4,0.1,2.7,0.1c4.4,0,8.4-0.5,12-1.8c3.5-1.3,6.5-3.5,8.6-6.5c2.1-3,3.2-6.8,3.2-11.4c0-2.4-0.4-4.7-1.2-6.9c-0.8-2.3-2.2-4.4-3.9-6.1c-2-2-4.5-3.5-7.1-4.4C53.4,36.3,49.8,35.8,45.4,35.8 M46.6,46.3c1.9,0,3.8,0.4,5.5,1.1c1.5,0.6,2.8,1.7,3.7,3c0.9,1.4,1.3,3.1,1.2,4.7c0,2.3-0.5,4.2-1.7,5.5c-1.2,1.3-2.7,2.3-4.4,2.8c-2,0.6-4.1,1-6.1,1h-2.8c-0.6,0-1.3-0.1-2.1-0.1V46.4c0.4-0.1,1.1-0.1,2.2-0.1c1-0.1,2.2-0.1,3.6-0.1C46.1,46.3,46.3,46.3,46.6,46.3"/><path fill="#9999FA" d="M74.6,50.1v42.2c0,0.1,0.1,0.2,0.2,0.2h9.5c0.1,0,0.2-0.1,0.2-0.2V67.1c0,0,0-0.1,0-0.1c0.2-0.6,3.1-6.5,14.8-6.5c0.1,0,0.2-0.1,0.2-0.2V49.1c0-0.1-0.1-0.2-0.2-0.2c-1.3-0.1-7.9-0.2-14.2,5.6c-0.2,0.1-0.4,0-0.4-0.2c0-1.4,0-3.5,0-4.2c0-0.1-0.1-0.2-0.2-0.2l-9.7,0.1C74.7,49.9,74.6,50,74.6,50.1z"/></svg>
